<svg width="19" height="8" viewBox="0 0 19 8" fill="none" xmlns="http://www.w3.org/2000/svg">
<path id="Vector" d="M2.95662 2.16566C2.99501 2.00825 3.01805 1.87005 3.06412 1.73952C3.32901 0.990891 3.89336 0.622337 4.64583 0.453416C5.92809 0.165483 7.14893 0.296013 8.32753 0.898753C8.74983 1.11374 9.19517 1.30186 9.64819 1.45542C9.92076 1.54756 10.2202 1.58211 10.512 1.59363C11.0917 1.61283 11.6752 1.59747 12.2549 1.60131C12.6772 1.60131 12.9037 1.83549 12.8922 2.2578C12.8769 2.82982 12.6964 3.34426 12.3509 3.84719C12.635 3.84719 12.8922 3.85487 13.1456 3.84335C13.1955 3.83951 13.2454 3.77041 13.2915 3.72434C13.829 3.18686 14.3626 2.64555 14.9039 2.11575C15.952 1.09071 17.599 1.06 18.6893 2.03897C19.0348 2.34994 19.0463 2.68394 18.72 3.01026C17.3763 4.35779 16.0288 5.70148 14.6851 7.04517C14.1668 7.56344 13.541 7.81683 12.8116 7.81683C8.94947 7.81683 5.08733 7.81683 1.22518 7.81683C0.768329 7.80915 0.5495 7.59032 0.5495 7.1373C0.5495 5.70148 0.5495 4.26565 0.5495 2.82599C0.5495 2.37681 0.76449 2.16566 1.22134 2.16566C1.79337 2.16182 2.36924 2.16566 2.95662 2.16566ZM4.11603 6.66125C4.20817 6.66125 4.27727 6.66125 4.34638 6.66125C7.14125 6.66125 9.93996 6.65742 12.7348 6.66509C13.2032 6.66509 13.5871 6.51153 13.9173 6.17753C15.0613 5.02579 16.2092 3.88174 17.3571 2.73385C17.3955 2.69545 17.4262 2.65322 17.4723 2.60332C17.4262 2.58412 17.3993 2.56493 17.3686 2.55725C16.7198 2.35378 16.1478 2.48814 15.6602 2.96803C15.0805 3.5439 14.497 4.11593 13.9288 4.70331C13.7253 4.91062 13.5065 5.00276 13.2186 4.99892C11.4257 4.99124 9.62899 4.99124 7.83613 4.99124C7.5981 4.99124 7.36392 4.99508 7.12589 4.98356C6.90322 4.97205 6.74198 4.8492 6.64984 4.64956C6.56154 4.45377 6.58074 4.26181 6.70743 4.08521C6.8418 3.89326 7.03759 3.83567 7.26026 3.83567C8.1087 3.83951 8.95715 3.83951 9.80943 3.83951C9.97451 3.83951 10.1434 3.83951 10.3047 3.82415C10.8921 3.75889 11.4718 3.28284 11.6176 2.74152C11.2683 2.74152 10.9266 2.73769 10.5849 2.74152C10.0436 2.7492 9.51382 2.66474 9.01473 2.45743C8.55404 2.26931 8.09719 2.07352 7.65185 1.85085C6.69591 1.37864 5.71694 1.34793 4.70725 1.62434C4.29263 1.73568 4.11603 1.9737 4.11603 2.39984C4.11603 3.41337 4.11603 4.43073 4.11603 5.44426C4.11603 5.84352 4.11603 6.23895 4.11603 6.66125ZM2.95662 6.64974C2.95662 5.53256 2.95662 4.43073 2.95662 3.32507C2.53432 3.32507 2.12737 3.32507 1.70891 3.32507C1.70891 4.43841 1.70891 5.54023 1.70891 6.64974C2.12737 6.64974 2.53432 6.64974 2.95662 6.64974Z" fill="#2F80ED"/>
</svg>
