<svg width="6" height="6" viewBox="0 0 6 6" fill="none" xmlns="http://www.w3.org/2000/svg">
<g id="NAIRA 1" clip-path="url(#clip0_2098_2931)">
<path id="Vector" d="M3.76842 1.00518C3.76842 0.844146 3.77233 0.682718 3.76842 0.521682C3.7653 0.436473 3.79735 0.413412 3.87826 0.414585C4.10769 0.418885 4.33752 0.420448 4.56657 0.414585C4.66428 0.411849 4.69204 0.444682 4.69047 0.539662C4.68539 0.842191 4.69321 1.14511 4.68656 1.44803C4.68422 1.55904 4.71041 1.60438 4.83118 1.59969C5.09463 1.59343 5.09502 1.59969 5.09502 1.87095C5.09502 2.03198 5.0915 2.19341 5.09502 2.35445C5.09736 2.43262 5.07665 2.46389 4.99026 2.46545C4.68774 2.47171 4.68774 2.47562 4.68774 2.78557C4.68774 2.93684 4.69164 3.08849 4.68774 3.23976C4.685 3.32262 4.71314 3.34763 4.79601 3.35037C5.09502 3.35897 5.09502 3.3621 5.09502 3.65876C5.09502 3.81003 5.0915 3.96168 5.09502 4.11295C5.09775 4.19503 5.07039 4.22044 4.98675 4.222C4.68735 4.22825 4.68774 4.23177 4.68774 4.53039C4.68774 4.75983 4.68422 4.98966 4.68774 5.2187C4.68774 5.30938 4.65764 5.33596 4.57048 5.33401C4.31681 5.32893 4.06235 5.32854 3.80868 5.33401C3.77297 5.33747 3.73706 5.32992 3.70576 5.31239C3.67446 5.29485 3.64927 5.26816 3.63357 5.2359C3.45221 4.93494 3.26303 4.63866 3.08324 4.33691C3.03321 4.25249 2.97966 4.21457 2.87647 4.21653C2.52977 4.22395 2.18307 4.22239 1.83638 4.21653C1.74022 4.21653 1.71208 4.24428 1.71404 4.33965C1.7199 4.62772 1.71169 4.91578 1.71834 5.20385C1.72068 5.3086 1.68668 5.33675 1.58544 5.33323C1.36578 5.32619 1.14572 5.32463 0.926444 5.33323C0.811139 5.33831 0.787297 5.29414 0.789252 5.19056C0.795505 4.91227 0.786515 4.63397 0.793551 4.35567C0.796287 4.24858 0.769317 4.21223 0.656357 4.21496C0.396432 4.22122 0.396042 4.21496 0.396042 3.95817C0.396042 3.78736 0.399169 3.61616 0.396042 3.44535C0.396042 3.36718 0.423011 3.34724 0.497666 3.34451C0.792769 3.33278 0.792769 3.33005 0.792769 3.03182C0.792769 2.88055 0.78847 2.7289 0.792769 2.57763C0.795896 2.49008 0.768926 2.46037 0.677855 2.46037C0.396041 2.45764 0.396042 2.45373 0.396042 2.16644C0.396042 2.01518 0.400732 1.86352 0.396042 1.71226C0.392133 1.62314 0.420274 1.595 0.510955 1.595C0.79355 1.5907 0.793551 1.5864 0.793551 1.29638C0.793551 1.04231 0.796287 0.788252 0.793551 0.53458C0.793551 0.448981 0.814657 0.412631 0.908465 0.414976C1.15745 0.420839 1.40643 0.420057 1.65541 0.414976C1.68892 0.412292 1.72245 0.419914 1.75151 0.436819C1.78057 0.453725 1.80377 0.479106 1.81801 0.509565C2.01344 0.835546 2.21747 1.15762 2.4129 1.48438C2.46059 1.56255 2.51101 1.60164 2.60834 1.60164C2.95503 1.59539 3.30173 1.59617 3.64843 1.60164C3.7438 1.60164 3.77702 1.57389 3.77272 1.47696C3.7653 1.32061 3.77272 1.16426 3.77272 1.00792L3.76842 1.00518ZM3.0121 2.46311C3.19385 2.75977 3.36036 3.03299 3.52921 3.30503C3.57573 3.37968 3.65351 3.34646 3.71722 3.34412C3.79539 3.34099 3.76647 3.2722 3.76686 3.22959C3.76959 3.00993 3.76686 2.79026 3.76686 2.5706C3.76686 2.51744 3.77702 2.46115 3.69142 2.46233C3.47527 2.46506 3.25756 2.46311 3.0121 2.46311ZM2.46762 3.34724L1.95012 2.50845C1.90322 2.43223 1.827 2.4635 1.76407 2.46623C1.6859 2.47014 1.71795 2.53933 1.71756 2.58076C1.71443 2.80003 1.71756 3.01931 1.71756 3.23858C1.71756 3.29018 1.70348 3.3492 1.79065 3.34802C2.0064 3.34568 2.22333 3.34724 2.46762 3.34724Z" fill="#515251"/>
</g>
<defs>
<clipPath id="clip0_2098_2931">
<rect width="4.70054" height="4.92138" fill="white" transform="translate(0.393188 0.413879)"/>
</clipPath>
</defs>
</svg>
