<svg width="7" height="7" viewBox="0 0 7 7" fill="none" xmlns="http://www.w3.org/2000/svg">
<g id="NAIRA 1" clip-path="url(#clip0_1_1273)">
<path id="Vector" d="M5.02717 0.780416C5.02717 0.58014 5.03203 0.379378 5.02717 0.179102C5.02328 0.0731313 5.06314 0.0444515 5.16376 0.0459098C5.44911 0.051257 5.73494 0.0532014 6.0198 0.0459098C6.14132 0.0425071 6.17584 0.0833398 6.17389 0.201464C6.16757 0.57771 6.17729 0.954442 6.16903 1.33117C6.16611 1.46923 6.19868 1.52562 6.34889 1.51978C6.67653 1.51201 6.67701 1.51978 6.67701 1.85714C6.67701 2.05742 6.67264 2.25818 6.67701 2.45845C6.67993 2.55568 6.65416 2.59456 6.54673 2.59651C6.17049 2.60429 6.17049 2.60915 6.17049 2.99463C6.17049 3.18275 6.17535 3.37136 6.17049 3.55948C6.16709 3.66254 6.20209 3.69365 6.30514 3.69705C6.67701 3.70775 6.67701 3.71163 6.67701 4.08059C6.67701 4.26871 6.67264 4.45732 6.67701 4.64544C6.68041 4.74753 6.64639 4.77912 6.54236 4.78107C6.17 4.78885 6.17049 4.79322 6.17049 5.16461C6.17049 5.44995 6.16611 5.73578 6.17049 6.02064C6.17049 6.13342 6.13306 6.16647 6.02466 6.16404C5.70917 6.15772 5.39272 6.15723 5.07724 6.16404C5.03283 6.16834 4.98816 6.15896 4.94924 6.13715C4.91031 6.11534 4.87899 6.08215 4.85946 6.04203C4.63391 5.66773 4.39863 5.29926 4.17503 4.92398C4.1128 4.81898 4.04621 4.77183 3.91787 4.77426C3.4867 4.7835 3.05552 4.78155 2.62435 4.77426C2.50476 4.77426 2.46977 4.80878 2.4722 4.92738C2.47949 5.28565 2.46928 5.64391 2.47754 6.00217C2.48046 6.13244 2.43817 6.16744 2.31227 6.16307C2.03908 6.15432 1.7654 6.15237 1.49269 6.16307C1.34929 6.16939 1.31964 6.11446 1.32207 5.98564C1.32985 5.63953 1.31867 5.29342 1.32742 4.94732C1.33082 4.81412 1.29728 4.76891 1.15679 4.77232C0.833532 4.78009 0.833047 4.77232 0.833047 4.45295C0.833047 4.24052 0.836936 4.0276 0.833047 3.81518C0.833047 3.71795 0.866588 3.69316 0.959434 3.68976C1.32644 3.67518 1.32644 3.67177 1.32644 3.30087C1.32644 3.11275 1.3211 2.92414 1.32644 2.73602C1.33033 2.62713 1.29679 2.59019 1.18353 2.59019C0.833047 2.58679 0.833047 2.58193 0.833047 2.22464C0.833047 2.03651 0.838881 1.8479 0.833047 1.65978C0.828186 1.54895 0.863185 1.51395 0.975961 1.51395C1.32742 1.5086 1.32742 1.50326 1.32742 1.14256C1.32742 0.826596 1.33082 0.510627 1.32742 0.195144C1.32742 0.0886867 1.35367 0.043479 1.47033 0.0463956C1.77998 0.0536872 2.08963 0.052715 2.39928 0.0463956C2.44096 0.0430584 2.48266 0.0525372 2.5188 0.0735618C2.55494 0.0945865 2.5838 0.126153 2.6015 0.164033C2.84455 0.569446 3.0983 0.969997 3.34135 1.37638C3.40066 1.4736 3.46336 1.52221 3.58441 1.52221C4.01558 1.51444 4.44676 1.51541 4.87793 1.52221C4.99654 1.52221 5.03786 1.4877 5.03252 1.36715C5.02328 1.1727 5.03252 0.978261 5.03252 0.783818L5.02717 0.780416ZM4.08655 2.59359C4.31259 2.96255 4.51967 3.30233 4.72967 3.64066C4.78752 3.73351 4.88425 3.69219 4.96349 3.68927C5.06071 3.68538 5.02474 3.59983 5.02522 3.54684C5.02863 3.27365 5.02522 3.00046 5.02522 2.72727C5.02522 2.66116 5.03786 2.59116 4.93141 2.59262C4.66259 2.59602 4.39183 2.59359 4.08655 2.59359ZM3.40941 3.69316L2.7658 2.64998C2.70747 2.55519 2.61268 2.59408 2.53442 2.59748C2.4372 2.60234 2.47706 2.68838 2.47657 2.73991C2.47268 3.01261 2.47657 3.28532 2.47657 3.55803C2.47657 3.62219 2.45907 3.69559 2.56747 3.69413C2.8358 3.69122 3.10559 3.69316 3.40941 3.69316Z" fill="#11453B"/>
</g>
<defs>
<clipPath id="clip0_1_1273">
<rect width="5.84591" height="6.12056" fill="white" transform="translate(0.829582 0.0452881)"/>
</clipPath>
</defs>
</svg>
