<svg width="23" height="16" viewBox="0 0 23 16" fill="none" xmlns="http://www.w3.org/2000/svg">
<path id="Vector" d="M0.646988 14.0407C0.646988 10.1758 0.646988 6.31578 0.646988 2.45083C0.656924 2.43593 0.666859 2.42103 0.671827 2.40612C0.825829 1.5616 1.7101 0.930685 2.7583 1.18901C5.67441 1.91431 8.58057 1.80502 11.4569 0.915782C14.7854 -0.117522 18.1386 -0.21191 21.5167 0.667391C22.401 0.89591 22.858 1.47218 22.858 2.37632C22.858 5.96804 22.858 9.55479 22.858 13.1465C22.858 13.221 22.858 13.2956 22.8531 13.3701C22.8034 14.3289 21.9241 15.0144 20.9802 14.8405C20.245 14.7014 19.5097 14.5325 18.7646 14.4431C16.4893 14.1699 14.2488 14.3885 12.063 15.0691C8.6849 16.1222 5.28195 16.2117 1.8641 15.2777C1.4468 15.1634 1.11396 14.9399 0.89041 14.5673C0.791054 14.4083 0.726473 14.2196 0.646988 14.0407ZM2.23669 2.734C2.23172 2.79858 2.22675 2.86316 2.22675 2.92774C2.22675 6.46979 2.23172 10.0069 2.23172 13.5489C2.23172 13.6979 2.27146 13.7625 2.42049 13.8023C3.6227 14.1152 4.84478 14.2941 6.08673 14.3388C8.06392 14.4083 9.97652 14.0656 11.8643 13.4943C14.3581 12.7342 16.9016 12.5653 19.4799 12.9478C20.0761 13.0372 20.6623 13.1614 21.2733 13.2707C21.2733 12.759 21.2733 12.2473 21.2733 11.7406C21.2733 8.66059 21.2733 5.58552 21.2733 2.50548C21.2733 2.37632 21.2981 2.25709 21.1094 2.20741C19.937 1.90437 18.7497 1.7156 17.5425 1.67089C15.5951 1.59637 13.6974 1.8845 11.8345 2.46077C9.26613 3.25065 6.65306 3.44936 3.99529 3.05194C3.41405 2.96252 2.83282 2.83832 2.23669 2.734Z" fill="#11453B"/>
</svg>
